<svg width="44" height="44" viewBox="0 0 44 44" fill="none" xmlns="http://www.w3.org/2000/svg">
<g clip-path="url(#clip0_212_2188)">
<path fill-rule="evenodd" clip-rule="evenodd" d="M8.49895 18.2605L19.8308 6.92868L21.241 8.33887L9.90913 19.6707L8.49895 18.2605Z" fill="#999999"/>
<path fill-rule="evenodd" clip-rule="evenodd" d="M12.2593 22.0208L23.5911 10.6889L25.0013 12.0991L13.6695 23.431L12.2593 22.0208Z" fill="#999999"/>
<path fill-rule="evenodd" clip-rule="evenodd" d="M20.2504 30.012L31.5822 18.6801L32.9924 20.0903L21.6606 31.4222L20.2504 30.012Z" fill="#999999"/>
<path fill-rule="evenodd" clip-rule="evenodd" d="M24.0108 33.7722L35.3426 22.4404L36.7528 23.8506L25.4209 35.1824L24.0108 33.7722Z" fill="#999999"/>
<path fill-rule="evenodd" clip-rule="evenodd" d="M24.0109 33.7725C20.0994 37.684 13.7717 37.6981 9.87755 33.804C5.98343 29.9099 5.99752 23.5822 9.90902 19.6707L8.49884 18.2605C3.80504 22.9543 3.78813 30.5475 8.46107 35.2205C13.134 39.8934 20.7272 39.8765 25.421 35.1827L24.0109 33.7725Z" fill="#999999"/>
<path fill-rule="evenodd" clip-rule="evenodd" d="M31.5822 18.6801L32.9924 20.0903C36.6432 16.4396 36.6563 10.5337 33.0218 6.89922C29.3873 3.26471 23.4814 3.27786 19.8307 6.9286L21.2409 8.33878C24.1093 5.47035 28.7496 5.46001 31.6053 8.3157C34.461 11.1714 34.4507 15.8117 31.5822 18.6801Z" fill="#999999"/>
<path fill-rule="evenodd" clip-rule="evenodd" d="M12.2597 22.0214C9.65201 24.629 9.64261 28.8475 12.2387 31.4436C14.8348 34.0397 19.0532 34.0303 21.6609 31.4226L20.2507 30.0124C18.4254 31.8378 15.4724 31.8443 13.6552 30.0271C11.8379 28.2098 11.8445 25.2569 13.6699 23.4315L12.2597 22.0214Z" fill="#999999"/>
</g>
<defs>
<clipPath id="clip0_212_2188">
<rect width="43.3632" height="43.3632" fill="white" transform="translate(0 0.318359)"/>
</clipPath>
</defs>
</svg>
