<svg width="36" height="35" viewBox="0 0 36 35" fill="none" xmlns="http://www.w3.org/2000/svg">
<path fill-rule="evenodd" clip-rule="evenodd" d="M18.0009 34.7502C8.48955 34.7502 0.751481 27.0122 0.749756 17.4991C0.751481 7.98783 8.48955 0.249763 18.0009 0.249763C27.5122 0.249763 35.2502 7.98783 35.2502 17.5009C35.2502 27.0104 27.5122 34.7485 18.0009 34.7502ZM18.0009 31.3004C25.6096 31.2986 31.8004 25.1078 31.8004 17.5009C31.8004 9.89044 25.6096 3.69964 18.0009 3.69964C10.3922 3.69964 4.20136 9.89044 4.19963 17.4991C4.20136 25.1096 10.3922 31.3004 18.0009 31.3004ZM18.0217 24.4076L11.1133 17.4992L18.0217 10.5925V15.7743H24.9111V19.2241H18.0217V24.4076Z" fill="#027DE7"/>
</svg>
