<svg width="72" height="72" viewBox="0 0 72 72" fill="none" xmlns="http://www.w3.org/2000/svg">
<g clip-path="url(#clip0_18_8512)">
<circle cx="36" cy="36" r="36" fill="#D9D9D9"/>
<path fill-rule="evenodd" clip-rule="evenodd" d="M52 18H20C18.8954 18 18 18.8954 18 20V41.2667L30.6547 38.3139C31.5486 38.1053 32.4635 38 33.3814 38H38.6186C39.5365 38 40.4514 38.1053 41.3453 38.3139L54 41.2667V20C54 18.8954 53.1046 18 52 18ZM20 16C17.7909 16 16 17.7909 16 20V52C16 54.2091 17.7909 56 20 56H52C54.2091 56 56 54.2091 56 52V20C56 17.7909 54.2091 16 52 16H20ZM26.9091 30.5455C28.9174 30.5455 30.5455 28.9174 30.5455 26.9091C30.5455 24.9008 28.9174 23.2727 26.9091 23.2727C24.9008 23.2727 23.2728 24.9008 23.2728 26.9091C23.2728 28.9174 24.9008 30.5455 26.9091 30.5455Z" fill="#4D4D4D" fill-opacity="0.8"/>
</g>
<defs>
<clipPath id="clip0_18_8512">
<rect width="72" height="72" fill="white"/>
</clipPath>
</defs>
</svg>
