<svg width="37" height="37" viewBox="0 0 37 37" fill="none" xmlns="http://www.w3.org/2000/svg">
<rect width="37" height="37" rx="18.5" fill="#EEEEEE"/>
<path fill-rule="evenodd" clip-rule="evenodd" d="M24.5 10.5H12.5C11.3954 10.5 10.5 11.3954 10.5 12.5V20.9L15.1547 19.8139C16.0486 19.6053 16.9635 19.5 17.8815 19.5H19.1186C20.0365 19.5 20.9514 19.6053 21.8453 19.8139L26.5 20.9V12.5C26.5 11.3954 25.6046 10.5 24.5 10.5ZM8.5 24.5C8.5 25.2031 8.68142 25.8639 8.99999 26.438V27.5H9.49998V28H10.562C11.1361 28.3186 11.7969 28.5 12.5 28.5H24.5C25.2031 28.5 25.8639 28.3186 26.438 28H27.5V27.5H28V26.5H28V26.438C28.3186 25.8639 28.5 25.2031 28.5 24.5V12.5C28.5 10.2909 26.7091 8.5 24.5 8.5H12.5C10.2909 8.5 8.5 10.2909 8.5 12.5V24.5ZM13.9546 15.7727C14.9587 15.7727 15.7727 14.9587 15.7727 13.9545C15.7727 12.9504 14.9587 12.1364 13.9546 12.1364C12.9504 12.1364 12.1364 12.9504 12.1364 13.9545C12.1364 14.9587 12.9504 15.7727 13.9546 15.7727Z" fill="#CDCDCD"/>
</svg>
