<svg width="19" height="19" viewBox="0 0 19 19" fill="none" xmlns="http://www.w3.org/2000/svg">
<path fill-rule="evenodd" clip-rule="evenodd" d="M11.7337 11.1724C9.69875 13.2074 6.39939 13.2074 4.36441 11.1724C2.32943 9.13741 2.32943 5.83805 4.36441 3.80307C6.39939 1.76809 9.69875 1.76809 11.7337 3.80307C13.7687 5.83805 13.7687 9.13741 11.7337 11.1724ZM12.3596 13.1378C9.5738 15.2687 5.57242 15.0602 3.02454 12.5123C0.249562 9.73729 0.249562 5.23817 3.02454 2.4632C5.79951 -0.311779 10.2986 -0.311779 13.0736 2.4632C15.6214 5.01097 15.83 9.01211 13.6994 11.7979L18.7682 16.8667L17.4284 18.2066L12.3596 13.1378Z" fill="#4D4D4D"/>
</svg>
